<mxfile host="app.diagrams.net" modified="2024-06-16T20:45:24.186Z" agent="Mozilla/5.0 (Windows NT 10.0; Win64; x64; rv:127.0) Gecko/20100101 Firefox/127.0" etag="oBhP4vQNJieBvXAODf19" version="24.5.4" type="device">
  <diagram name="Page-1" id="6pP-9CTmCZvio0JUvOW-">
    <mxGraphModel dx="2034" dy="2271" grid="1" gridSize="10" guides="1" tooltips="1" connect="1" arrows="1" fold="1" page="1" pageScale="1" pageWidth="900" pageHeight="1600" math="0" shadow="0">
      <root>
        <mxCell id="0" />
        <mxCell id="1" parent="0" />
        <mxCell id="ZahFf82nUCPtnE7jNA-f-1" value="Korisnik" style="whiteSpace=wrap;strokeWidth=2;" vertex="1" parent="1">
          <mxGeometry x="1559" y="367" width="71" height="34" as="geometry" />
        </mxCell>
        <mxCell id="ZahFf82nUCPtnE7jNA-f-2" value="Šifra" style="whiteSpace=wrap;strokeWidth=2;" vertex="1" parent="1">
          <mxGeometry x="1906" y="226" width="48" height="34" as="geometry" />
        </mxCell>
        <mxCell id="ZahFf82nUCPtnE7jNA-f-3" value="Korisničko ime" style="whiteSpace=wrap;strokeWidth=2;" vertex="1" parent="1">
          <mxGeometry x="1737" y="226" width="119" height="34" as="geometry" />
        </mxCell>
        <mxCell id="ZahFf82nUCPtnE7jNA-f-4" value="Email" style="whiteSpace=wrap;strokeWidth=2;" vertex="1" parent="1">
          <mxGeometry x="1633" y="226" width="55" height="34" as="geometry" />
        </mxCell>
        <mxCell id="ZahFf82nUCPtnE7jNA-f-5" value="Organizator" style="whiteSpace=wrap;strokeWidth=2;" vertex="1" parent="1">
          <mxGeometry x="235" y="664" width="99" height="34" as="geometry" />
        </mxCell>
        <mxCell id="ZahFf82nUCPtnE7jNA-f-6" value="Šifra" style="whiteSpace=wrap;strokeWidth=2;" vertex="1" parent="1">
          <mxGeometry x="463" y="506" width="48" height="34" as="geometry" />
        </mxCell>
        <mxCell id="ZahFf82nUCPtnE7jNA-f-7" value="Korisničko ime" style="whiteSpace=wrap;strokeWidth=2;" vertex="1" parent="1">
          <mxGeometry x="294" y="506" width="119" height="34" as="geometry" />
        </mxCell>
        <mxCell id="ZahFf82nUCPtnE7jNA-f-8" value="Email" style="whiteSpace=wrap;strokeWidth=2;" vertex="1" parent="1">
          <mxGeometry x="189" y="506" width="55" height="34" as="geometry" />
        </mxCell>
        <mxCell id="ZahFf82nUCPtnE7jNA-f-9" value="Administrator" style="whiteSpace=wrap;strokeWidth=2;" vertex="1" parent="1">
          <mxGeometry x="1170" y="104" width="113" height="34" as="geometry" />
        </mxCell>
        <mxCell id="ZahFf82nUCPtnE7jNA-f-10" value="Šifra" style="whiteSpace=wrap;strokeWidth=2;" vertex="1" parent="1">
          <mxGeometry x="1300" y="20" width="48" height="34" as="geometry" />
        </mxCell>
        <mxCell id="ZahFf82nUCPtnE7jNA-f-11" value="Korisničko ime" style="whiteSpace=wrap;strokeWidth=2;" vertex="1" parent="1">
          <mxGeometry x="1131" y="20" width="119" height="34" as="geometry" />
        </mxCell>
        <mxCell id="ZahFf82nUCPtnE7jNA-f-12" value="Email" style="whiteSpace=wrap;strokeWidth=2;" vertex="1" parent="1">
          <mxGeometry x="1027" y="20" width="55" height="34" as="geometry" />
        </mxCell>
        <mxCell id="ZahFf82nUCPtnE7jNA-f-13" value="Turnir" style="whiteSpace=wrap;strokeWidth=2;" vertex="1" parent="1">
          <mxGeometry x="530" y="943" width="57" height="34" as="geometry" />
        </mxCell>
        <mxCell id="ZahFf82nUCPtnE7jNA-f-14" value="Šifra" style="whiteSpace=wrap;strokeWidth=2;" vertex="1" parent="1">
          <mxGeometry x="920" y="794" width="48" height="34" as="geometry" />
        </mxCell>
        <mxCell id="ZahFf82nUCPtnE7jNA-f-15" value="Naziv" style="whiteSpace=wrap;strokeWidth=2;" vertex="1" parent="1">
          <mxGeometry x="816" y="794" width="54" height="34" as="geometry" />
        </mxCell>
        <mxCell id="ZahFf82nUCPtnE7jNA-f-16" value="Datum" style="whiteSpace=wrap;strokeWidth=2;" vertex="1" parent="1">
          <mxGeometry x="705" y="794" width="62" height="34" as="geometry" />
        </mxCell>
        <mxCell id="ZahFf82nUCPtnE7jNA-f-17" value="Prijava" style="whiteSpace=wrap;strokeWidth=2;" vertex="1" parent="1">
          <mxGeometry x="706" y="664" width="64" height="34" as="geometry" />
        </mxCell>
        <mxCell id="ZahFf82nUCPtnE7jNA-f-18" value="Šifra" style="whiteSpace=wrap;strokeWidth=2;" vertex="1" parent="1">
          <mxGeometry x="1291" y="506" width="48" height="34" as="geometry" />
        </mxCell>
        <mxCell id="ZahFf82nUCPtnE7jNA-f-19" value="Datum" style="whiteSpace=wrap;strokeWidth=2;" vertex="1" parent="1">
          <mxGeometry x="1179" y="506" width="62" height="34" as="geometry" />
        </mxCell>
        <mxCell id="ZahFf82nUCPtnE7jNA-f-20" value="Status" style="whiteSpace=wrap;strokeWidth=2;" vertex="1" parent="1">
          <mxGeometry x="894" y="506" width="59" height="34" as="geometry" />
        </mxCell>
        <mxCell id="ZahFf82nUCPtnE7jNA-f-21" value="Meč" style="whiteSpace=wrap;strokeWidth=2;" vertex="1" parent="1">
          <mxGeometry x="290" y="1221" width="43" height="34" as="geometry" />
        </mxCell>
        <mxCell id="ZahFf82nUCPtnE7jNA-f-22" value="Šifra" style="whiteSpace=wrap;strokeWidth=2;" vertex="1" parent="1">
          <mxGeometry x="399" y="1073" width="48" height="34" as="geometry" />
        </mxCell>
        <mxCell id="ZahFf82nUCPtnE7jNA-f-23" value="Datum" style="whiteSpace=wrap;strokeWidth=2;" vertex="1" parent="1">
          <mxGeometry x="287" y="1073" width="62" height="34" as="geometry" />
        </mxCell>
        <mxCell id="ZahFf82nUCPtnE7jNA-f-24" value="Rezultat" style="whiteSpace=wrap;strokeWidth=2;" vertex="1" parent="1">
          <mxGeometry x="162" y="1073" width="75" height="34" as="geometry" />
        </mxCell>
        <mxCell id="ZahFf82nUCPtnE7jNA-f-25" value="Sistem za Plaćanje" style="whiteSpace=wrap;strokeWidth=2;" vertex="1" parent="1">
          <mxGeometry x="1047" y="943" width="149" height="34" as="geometry" />
        </mxCell>
        <mxCell id="ZahFf82nUCPtnE7jNA-f-26" value="Šifra" style="whiteSpace=wrap;strokeWidth=2;" vertex="1" parent="1">
          <mxGeometry x="1259" y="794" width="48" height="34" as="geometry" />
        </mxCell>
        <mxCell id="ZahFf82nUCPtnE7jNA-f-27" value="Naziv" style="whiteSpace=wrap;strokeWidth=2;" vertex="1" parent="1">
          <mxGeometry x="1155" y="794" width="54" height="34" as="geometry" />
        </mxCell>
        <mxCell id="ZahFf82nUCPtnE7jNA-f-28" value="Tim" style="whiteSpace=wrap;strokeWidth=2;" vertex="1" parent="1">
          <mxGeometry x="1727" y="664" width="41" height="34" as="geometry" />
        </mxCell>
        <mxCell id="ZahFf82nUCPtnE7jNA-f-29" value="Šifra" style="whiteSpace=wrap;strokeWidth=2;" vertex="1" parent="1">
          <mxGeometry x="1799" y="506" width="48" height="34" as="geometry" />
        </mxCell>
        <mxCell id="ZahFf82nUCPtnE7jNA-f-30" value="Naziv" style="whiteSpace=wrap;strokeWidth=2;" vertex="1" parent="1">
          <mxGeometry x="1695" y="506" width="54" height="34" as="geometry" />
        </mxCell>
        <mxCell id="ZahFf82nUCPtnE7jNA-f-31" value="Igra" style="whiteSpace=wrap;strokeWidth=2;" vertex="1" parent="1">
          <mxGeometry x="1784" y="943" width="42" height="34" as="geometry" />
        </mxCell>
        <mxCell id="ZahFf82nUCPtnE7jNA-f-32" value="Šifra" style="whiteSpace=wrap;strokeWidth=2;" vertex="1" parent="1">
          <mxGeometry x="1940" y="794" width="48" height="34" as="geometry" />
        </mxCell>
        <mxCell id="ZahFf82nUCPtnE7jNA-f-33" value="Naziv" style="whiteSpace=wrap;strokeWidth=2;" vertex="1" parent="1">
          <mxGeometry x="1836" y="794" width="54" height="34" as="geometry" />
        </mxCell>
        <mxCell id="ZahFf82nUCPtnE7jNA-f-34" value="Nagrada" style="whiteSpace=wrap;strokeWidth=2;" vertex="1" parent="1">
          <mxGeometry x="761" y="1221" width="74" height="34" as="geometry" />
        </mxCell>
        <mxCell id="ZahFf82nUCPtnE7jNA-f-35" value="Šifra" style="whiteSpace=wrap;strokeWidth=2;" vertex="1" parent="1">
          <mxGeometry x="876" y="1073" width="48" height="34" as="geometry" />
        </mxCell>
        <mxCell id="ZahFf82nUCPtnE7jNA-f-36" value="Naziv" style="whiteSpace=wrap;strokeWidth=2;" vertex="1" parent="1">
          <mxGeometry x="772" y="1073" width="54" height="34" as="geometry" />
        </mxCell>
        <mxCell id="ZahFf82nUCPtnE7jNA-f-37" value="Iznos" style="whiteSpace=wrap;strokeWidth=2;" vertex="1" parent="1">
          <mxGeometry x="671" y="1073" width="51" height="34" as="geometry" />
        </mxCell>
        <mxCell id="ZahFf82nUCPtnE7jNA-f-38" value="Prijavljuje se" style="rhombus;strokeWidth=2;whiteSpace=wrap;" vertex="1" parent="1">
          <mxGeometry x="560" y="451" width="144" height="144" as="geometry" />
        </mxCell>
        <mxCell id="ZahFf82nUCPtnE7jNA-f-39" value="Pripada" style="rhombus;strokeWidth=2;whiteSpace=wrap;" vertex="1" parent="1">
          <mxGeometry x="552" y="760" width="103" height="103" as="geometry" />
        </mxCell>
        <mxCell id="ZahFf82nUCPtnE7jNA-f-131" style="edgeStyle=none;curved=1;rounded=0;orthogonalLoop=1;jettySize=auto;html=1;exitX=0.5;exitY=1;exitDx=0;exitDy=0;fontSize=12;startSize=8;endSize=8;entryX=0;entryY=0.75;entryDx=0;entryDy=0;" edge="1" parent="1" source="ZahFf82nUCPtnE7jNA-f-40" target="ZahFf82nUCPtnE7jNA-f-31">
          <mxGeometry relative="1" as="geometry">
            <mxPoint x="940" y="1380" as="targetPoint" />
            <Array as="points">
              <mxPoint x="470" y="1410" />
              <mxPoint x="910" y="1610" />
            </Array>
          </mxGeometry>
        </mxCell>
        <mxCell id="ZahFf82nUCPtnE7jNA-f-40" value="Sadrži" style="rhombus;strokeWidth=2;whiteSpace=wrap;" vertex="1" parent="1">
          <mxGeometry x="20" y="1044" width="92" height="92" as="geometry" />
        </mxCell>
        <mxCell id="ZahFf82nUCPtnE7jNA-f-41" value="Plaća" style="rhombus;strokeWidth=2;whiteSpace=wrap;" vertex="1" parent="1">
          <mxGeometry x="1018" y="767" width="87" height="87" as="geometry" />
        </mxCell>
        <mxCell id="ZahFf82nUCPtnE7jNA-f-42" value="Pripada" style="rhombus;strokeWidth=2;whiteSpace=wrap;" vertex="1" parent="1">
          <mxGeometry x="1543" y="471" width="103" height="103" as="geometry" />
        </mxCell>
        <mxCell id="ZahFf82nUCPtnE7jNA-f-43" value="Igra" style="rhombus;strokeWidth=2;whiteSpace=wrap;" vertex="1" parent="1">
          <mxGeometry x="1710" y="773" width="76" height="76" as="geometry" />
        </mxCell>
        <mxCell id="ZahFf82nUCPtnE7jNA-f-44" value="Dodjeljuje" style="rhombus;strokeWidth=2;whiteSpace=wrap;" vertex="1" parent="1">
          <mxGeometry x="496" y="1027" width="125" height="125" as="geometry" />
        </mxCell>
        <mxCell id="ZahFf82nUCPtnE7jNA-f-45" value="Organizuje" style="rhombus;strokeWidth=2;whiteSpace=wrap;" vertex="1" parent="1">
          <mxGeometry x="222" y="748" width="127" height="127" as="geometry" />
        </mxCell>
        <mxCell id="ZahFf82nUCPtnE7jNA-f-46" value="Upravlja" style="rhombus;strokeWidth=2;whiteSpace=wrap;" vertex="1" parent="1">
          <mxGeometry x="1473" y="188" width="110" height="110" as="geometry" />
        </mxCell>
        <mxCell id="ZahFf82nUCPtnE7jNA-f-47" value="Upravlja" style="rhombus;strokeWidth=2;whiteSpace=wrap;" vertex="1" parent="1">
          <mxGeometry x="46" y="756" width="110" height="110" as="geometry" />
        </mxCell>
        <mxCell id="ZahFf82nUCPtnE7jNA-f-48" value="Upravlja" style="rhombus;strokeWidth=2;whiteSpace=wrap;" vertex="1" parent="1">
          <mxGeometry x="1357" y="756" width="110" height="110" as="geometry" />
        </mxCell>
        <mxCell id="ZahFf82nUCPtnE7jNA-f-49" value="" style="curved=1;startArrow=none;endArrow=block;exitX=0.5;exitY=1;entryX=0.99;entryY=0.33;rounded=0;fontSize=12;startSize=8;endSize=8;" edge="1" parent="1" source="ZahFf82nUCPtnE7jNA-f-2" target="ZahFf82nUCPtnE7jNA-f-1">
          <mxGeometry relative="1" as="geometry">
            <Array as="points">
              <mxPoint x="1930" y="332" />
            </Array>
          </mxGeometry>
        </mxCell>
        <mxCell id="ZahFf82nUCPtnE7jNA-f-50" value="" style="curved=1;startArrow=none;endArrow=block;exitX=0.5;exitY=1;entryX=0.99;entryY=0.23;rounded=0;fontSize=12;startSize=8;endSize=8;" edge="1" parent="1" source="ZahFf82nUCPtnE7jNA-f-3" target="ZahFf82nUCPtnE7jNA-f-1">
          <mxGeometry relative="1" as="geometry">
            <Array as="points">
              <mxPoint x="1797" y="332" />
            </Array>
          </mxGeometry>
        </mxCell>
        <mxCell id="ZahFf82nUCPtnE7jNA-f-51" value="" style="curved=1;startArrow=none;endArrow=block;exitX=0.49;exitY=1;entryX=0.8;entryY=-0.01;rounded=0;fontSize=12;startSize=8;endSize=8;" edge="1" parent="1" source="ZahFf82nUCPtnE7jNA-f-4" target="ZahFf82nUCPtnE7jNA-f-1">
          <mxGeometry relative="1" as="geometry">
            <Array as="points">
              <mxPoint x="1660" y="332" />
            </Array>
          </mxGeometry>
        </mxCell>
        <mxCell id="ZahFf82nUCPtnE7jNA-f-52" value="" style="curved=1;startArrow=none;endArrow=block;exitX=0.49;exitY=0.99;entryX=1;entryY=0.12;rounded=0;fontSize=12;startSize=8;endSize=8;" edge="1" parent="1" source="ZahFf82nUCPtnE7jNA-f-6" target="ZahFf82nUCPtnE7jNA-f-5">
          <mxGeometry relative="1" as="geometry">
            <Array as="points">
              <mxPoint x="487" y="629" />
            </Array>
          </mxGeometry>
        </mxCell>
        <mxCell id="ZahFf82nUCPtnE7jNA-f-53" value="" style="curved=1;startArrow=none;endArrow=block;exitX=0.5;exitY=0.99;entryX=0.73;entryY=-0.01;rounded=0;fontSize=12;startSize=8;endSize=8;" edge="1" parent="1" source="ZahFf82nUCPtnE7jNA-f-7" target="ZahFf82nUCPtnE7jNA-f-5">
          <mxGeometry relative="1" as="geometry">
            <Array as="points">
              <mxPoint x="353" y="629" />
            </Array>
          </mxGeometry>
        </mxCell>
        <mxCell id="ZahFf82nUCPtnE7jNA-f-54" value="" style="curved=1;startArrow=none;endArrow=block;exitX=0.5;exitY=0.99;entryX=0.28;entryY=-0.01;rounded=0;fontSize=12;startSize=8;endSize=8;" edge="1" parent="1" source="ZahFf82nUCPtnE7jNA-f-8" target="ZahFf82nUCPtnE7jNA-f-5">
          <mxGeometry relative="1" as="geometry">
            <Array as="points">
              <mxPoint x="217" y="629" />
            </Array>
          </mxGeometry>
        </mxCell>
        <mxCell id="ZahFf82nUCPtnE7jNA-f-55" value="" style="curved=1;startArrow=none;endArrow=block;exitX=0.51;exitY=1;entryX=0.85;entryY=0;rounded=0;fontSize=12;startSize=8;endSize=8;" edge="1" parent="1" source="ZahFf82nUCPtnE7jNA-f-10" target="ZahFf82nUCPtnE7jNA-f-9">
          <mxGeometry relative="1" as="geometry">
            <Array as="points">
              <mxPoint x="1324" y="79" />
            </Array>
          </mxGeometry>
        </mxCell>
        <mxCell id="ZahFf82nUCPtnE7jNA-f-56" value="" style="curved=1;startArrow=none;endArrow=block;exitX=0.5;exitY=1;entryX=0.37;entryY=0;rounded=0;fontSize=12;startSize=8;endSize=8;" edge="1" parent="1" source="ZahFf82nUCPtnE7jNA-f-11" target="ZahFf82nUCPtnE7jNA-f-9">
          <mxGeometry relative="1" as="geometry">
            <Array as="points">
              <mxPoint x="1191" y="79" />
            </Array>
          </mxGeometry>
        </mxCell>
        <mxCell id="ZahFf82nUCPtnE7jNA-f-57" value="" style="curved=1;startArrow=none;endArrow=block;exitX=0.5;exitY=1;entryX=0;entryY=0.09;rounded=0;fontSize=12;startSize=8;endSize=8;" edge="1" parent="1" source="ZahFf82nUCPtnE7jNA-f-12" target="ZahFf82nUCPtnE7jNA-f-9">
          <mxGeometry relative="1" as="geometry">
            <Array as="points">
              <mxPoint x="1054" y="79" />
            </Array>
          </mxGeometry>
        </mxCell>
        <mxCell id="ZahFf82nUCPtnE7jNA-f-58" value="" style="curved=1;startArrow=none;endArrow=block;exitX=0.5;exitY=1;entryX=1;entryY=0.4;rounded=0;fontSize=12;startSize=8;endSize=8;" edge="1" parent="1" source="ZahFf82nUCPtnE7jNA-f-14" target="ZahFf82nUCPtnE7jNA-f-13">
          <mxGeometry relative="1" as="geometry">
            <Array as="points">
              <mxPoint x="944" y="909" />
            </Array>
          </mxGeometry>
        </mxCell>
        <mxCell id="ZahFf82nUCPtnE7jNA-f-59" value="" style="curved=1;startArrow=none;endArrow=block;exitX=0.51;exitY=1;entryX=1;entryY=0.36;rounded=0;fontSize=12;startSize=8;endSize=8;" edge="1" parent="1" source="ZahFf82nUCPtnE7jNA-f-15" target="ZahFf82nUCPtnE7jNA-f-13">
          <mxGeometry relative="1" as="geometry">
            <Array as="points">
              <mxPoint x="843" y="909" />
            </Array>
          </mxGeometry>
        </mxCell>
        <mxCell id="ZahFf82nUCPtnE7jNA-f-60" value="" style="curved=1;startArrow=none;endArrow=block;exitX=0.5;exitY=1;entryX=1;entryY=0.27;rounded=0;fontSize=12;startSize=8;endSize=8;" edge="1" parent="1" source="ZahFf82nUCPtnE7jNA-f-16" target="ZahFf82nUCPtnE7jNA-f-13">
          <mxGeometry relative="1" as="geometry">
            <Array as="points">
              <mxPoint x="736" y="909" />
            </Array>
          </mxGeometry>
        </mxCell>
        <mxCell id="ZahFf82nUCPtnE7jNA-f-61" value="" style="curved=1;startArrow=none;endArrow=block;exitX=0.49;exitY=0.99;entryX=1.01;entryY=0.41;rounded=0;fontSize=12;startSize=8;endSize=8;" edge="1" parent="1" source="ZahFf82nUCPtnE7jNA-f-18" target="ZahFf82nUCPtnE7jNA-f-17">
          <mxGeometry relative="1" as="geometry">
            <Array as="points">
              <mxPoint x="1315" y="629" />
            </Array>
          </mxGeometry>
        </mxCell>
        <mxCell id="ZahFf82nUCPtnE7jNA-f-62" value="" style="curved=1;startArrow=none;endArrow=block;exitX=0.5;exitY=0.99;entryX=1.01;entryY=0.39;rounded=0;fontSize=12;startSize=8;endSize=8;" edge="1" parent="1" source="ZahFf82nUCPtnE7jNA-f-19" target="ZahFf82nUCPtnE7jNA-f-17">
          <mxGeometry relative="1" as="geometry">
            <Array as="points">
              <mxPoint x="1210" y="629" />
            </Array>
          </mxGeometry>
        </mxCell>
        <mxCell id="ZahFf82nUCPtnE7jNA-f-63" value="" style="curved=1;startArrow=none;endArrow=block;exitX=0.5;exitY=0.99;entryX=1.01;entryY=0.23;rounded=0;fontSize=12;startSize=8;endSize=8;" edge="1" parent="1" source="ZahFf82nUCPtnE7jNA-f-20" target="ZahFf82nUCPtnE7jNA-f-17">
          <mxGeometry relative="1" as="geometry">
            <Array as="points">
              <mxPoint x="924" y="629" />
            </Array>
          </mxGeometry>
        </mxCell>
        <mxCell id="ZahFf82nUCPtnE7jNA-f-64" value="" style="curved=1;startArrow=none;endArrow=block;exitX=0.49;exitY=1;entryX=0.99;entryY=0.22;rounded=0;fontSize=12;startSize=8;endSize=8;" edge="1" parent="1" source="ZahFf82nUCPtnE7jNA-f-22" target="ZahFf82nUCPtnE7jNA-f-21">
          <mxGeometry relative="1" as="geometry">
            <Array as="points">
              <mxPoint x="422" y="1187" />
            </Array>
          </mxGeometry>
        </mxCell>
        <mxCell id="ZahFf82nUCPtnE7jNA-f-65" value="" style="curved=1;startArrow=none;endArrow=block;exitX=0.5;exitY=1;entryX=0.54;entryY=0.01;rounded=0;fontSize=12;startSize=8;endSize=8;" edge="1" parent="1" source="ZahFf82nUCPtnE7jNA-f-23" target="ZahFf82nUCPtnE7jNA-f-21">
          <mxGeometry relative="1" as="geometry">
            <Array as="points">
              <mxPoint x="318" y="1187" />
            </Array>
          </mxGeometry>
        </mxCell>
        <mxCell id="ZahFf82nUCPtnE7jNA-f-66" value="" style="curved=1;startArrow=none;endArrow=block;exitX=0.5;exitY=1;entryX=-0.01;entryY=0.22;rounded=0;fontSize=12;startSize=8;endSize=8;" edge="1" parent="1" source="ZahFf82nUCPtnE7jNA-f-24" target="ZahFf82nUCPtnE7jNA-f-21">
          <mxGeometry relative="1" as="geometry">
            <Array as="points">
              <mxPoint x="200" y="1187" />
            </Array>
          </mxGeometry>
        </mxCell>
        <mxCell id="ZahFf82nUCPtnE7jNA-f-67" value="" style="curved=1;startArrow=none;endArrow=block;exitX=0.5;exitY=1;entryX=0.86;entryY=0.01;rounded=0;fontSize=12;startSize=8;endSize=8;" edge="1" parent="1" source="ZahFf82nUCPtnE7jNA-f-26" target="ZahFf82nUCPtnE7jNA-f-25">
          <mxGeometry relative="1" as="geometry">
            <Array as="points">
              <mxPoint x="1283" y="909" />
            </Array>
          </mxGeometry>
        </mxCell>
        <mxCell id="ZahFf82nUCPtnE7jNA-f-68" value="" style="curved=1;startArrow=none;endArrow=block;exitX=0.5;exitY=1;entryX=0.64;entryY=0.01;rounded=0;fontSize=12;startSize=8;endSize=8;" edge="1" parent="1" source="ZahFf82nUCPtnE7jNA-f-27" target="ZahFf82nUCPtnE7jNA-f-25">
          <mxGeometry relative="1" as="geometry">
            <Array as="points">
              <mxPoint x="1182" y="909" />
            </Array>
          </mxGeometry>
        </mxCell>
        <mxCell id="ZahFf82nUCPtnE7jNA-f-69" value="" style="curved=1;startArrow=none;endArrow=block;exitX=0.5;exitY=0.99;entryX=1.02;entryY=0.07;rounded=0;fontSize=12;startSize=8;endSize=8;" edge="1" parent="1" source="ZahFf82nUCPtnE7jNA-f-29" target="ZahFf82nUCPtnE7jNA-f-28">
          <mxGeometry relative="1" as="geometry">
            <Array as="points">
              <mxPoint x="1823" y="629" />
            </Array>
          </mxGeometry>
        </mxCell>
        <mxCell id="ZahFf82nUCPtnE7jNA-f-70" value="" style="curved=1;startArrow=none;endArrow=block;exitX=0.5;exitY=0.99;entryX=0.31;entryY=-0.01;rounded=0;fontSize=12;startSize=8;endSize=8;" edge="1" parent="1" source="ZahFf82nUCPtnE7jNA-f-30" target="ZahFf82nUCPtnE7jNA-f-28">
          <mxGeometry relative="1" as="geometry">
            <Array as="points">
              <mxPoint x="1722" y="629" />
            </Array>
          </mxGeometry>
        </mxCell>
        <mxCell id="ZahFf82nUCPtnE7jNA-f-71" value="" style="curved=1;startArrow=none;endArrow=block;exitX=0.49;exitY=1;entryX=1;entryY=0.31;rounded=0;fontSize=12;startSize=8;endSize=8;" edge="1" parent="1" source="ZahFf82nUCPtnE7jNA-f-32" target="ZahFf82nUCPtnE7jNA-f-31">
          <mxGeometry relative="1" as="geometry">
            <Array as="points">
              <mxPoint x="1964" y="909" />
            </Array>
          </mxGeometry>
        </mxCell>
        <mxCell id="ZahFf82nUCPtnE7jNA-f-72" value="" style="curved=1;startArrow=none;endArrow=block;exitX=0.5;exitY=1;entryX=0.95;entryY=0.01;rounded=0;fontSize=12;startSize=8;endSize=8;" edge="1" parent="1" source="ZahFf82nUCPtnE7jNA-f-33" target="ZahFf82nUCPtnE7jNA-f-31">
          <mxGeometry relative="1" as="geometry">
            <Array as="points">
              <mxPoint x="1863" y="909" />
            </Array>
          </mxGeometry>
        </mxCell>
        <mxCell id="ZahFf82nUCPtnE7jNA-f-73" value="" style="curved=1;startArrow=none;endArrow=block;exitX=0.49;exitY=1;entryX=0.95;entryY=0.01;rounded=0;fontSize=12;startSize=8;endSize=8;" edge="1" parent="1" source="ZahFf82nUCPtnE7jNA-f-35" target="ZahFf82nUCPtnE7jNA-f-34">
          <mxGeometry relative="1" as="geometry">
            <Array as="points">
              <mxPoint x="900" y="1187" />
            </Array>
          </mxGeometry>
        </mxCell>
        <mxCell id="ZahFf82nUCPtnE7jNA-f-74" value="" style="curved=1;startArrow=none;endArrow=block;exitX=0.5;exitY=1;entryX=0.51;entryY=0.01;rounded=0;fontSize=12;startSize=8;endSize=8;" edge="1" parent="1" source="ZahFf82nUCPtnE7jNA-f-36" target="ZahFf82nUCPtnE7jNA-f-34">
          <mxGeometry relative="1" as="geometry">
            <Array as="points">
              <mxPoint x="799" y="1187" />
            </Array>
          </mxGeometry>
        </mxCell>
        <mxCell id="ZahFf82nUCPtnE7jNA-f-75" value="" style="curved=1;startArrow=none;endArrow=block;exitX=0.5;exitY=1;entryX=0.05;entryY=0.01;rounded=0;fontSize=12;startSize=8;endSize=8;" edge="1" parent="1" source="ZahFf82nUCPtnE7jNA-f-37" target="ZahFf82nUCPtnE7jNA-f-34">
          <mxGeometry relative="1" as="geometry">
            <Array as="points">
              <mxPoint x="697" y="1187" />
            </Array>
          </mxGeometry>
        </mxCell>
        <mxCell id="ZahFf82nUCPtnE7jNA-f-76" value="" style="curved=1;startArrow=none;endArrow=block;exitX=-0.01;exitY=0.54;entryX=0.5;entryY=0;rounded=0;fontSize=12;startSize=8;endSize=8;" edge="1" parent="1" source="ZahFf82nUCPtnE7jNA-f-1" target="ZahFf82nUCPtnE7jNA-f-38">
          <mxGeometry relative="1" as="geometry">
            <Array as="points">
              <mxPoint x="633" y="426" />
            </Array>
          </mxGeometry>
        </mxCell>
        <mxCell id="ZahFf82nUCPtnE7jNA-f-77" value="" style="curved=1;startArrow=none;endArrow=block;exitX=1;exitY=0.98;entryX=0.52;entryY=-0.01;rounded=0;fontSize=12;startSize=8;endSize=8;" edge="1" parent="1" source="ZahFf82nUCPtnE7jNA-f-38" target="ZahFf82nUCPtnE7jNA-f-17">
          <mxGeometry relative="1" as="geometry">
            <Array as="points">
              <mxPoint x="742" y="629" />
            </Array>
          </mxGeometry>
        </mxCell>
        <mxCell id="ZahFf82nUCPtnE7jNA-f-79" value="" style="curved=1;startArrow=none;endArrow=block;exitX=0;exitY=0.79;entryX=0.5;entryY=0;rounded=0;fontSize=12;startSize=8;endSize=8;" edge="1" parent="1" source="ZahFf82nUCPtnE7jNA-f-17" target="ZahFf82nUCPtnE7jNA-f-39">
          <mxGeometry relative="1" as="geometry">
            <Array as="points">
              <mxPoint x="604" y="723" />
            </Array>
          </mxGeometry>
        </mxCell>
        <mxCell id="ZahFf82nUCPtnE7jNA-f-80" value="" style="curved=1;startArrow=none;endArrow=block;exitX=0.79;exitY=0.99;entryX=1;entryY=0.09;rounded=0;fontSize=12;startSize=8;endSize=8;" edge="1" parent="1" source="ZahFf82nUCPtnE7jNA-f-39" target="ZahFf82nUCPtnE7jNA-f-13">
          <mxGeometry relative="1" as="geometry">
            <Array as="points">
              <mxPoint x="660" y="909" />
            </Array>
          </mxGeometry>
        </mxCell>
        <mxCell id="ZahFf82nUCPtnE7jNA-f-82" value="" style="curved=1;startArrow=none;endArrow=block;exitX=0.01;exitY=0.58;entryX=0.5;entryY=0;rounded=0;fontSize=12;startSize=8;endSize=8;" edge="1" parent="1" source="ZahFf82nUCPtnE7jNA-f-13" target="ZahFf82nUCPtnE7jNA-f-40">
          <mxGeometry relative="1" as="geometry">
            <Array as="points">
              <mxPoint x="66" y="1002" />
            </Array>
          </mxGeometry>
        </mxCell>
        <mxCell id="ZahFf82nUCPtnE7jNA-f-83" value="" style="curved=1;startArrow=none;endArrow=block;exitX=0.71;exitY=1;entryX=-0.01;entryY=0.35;rounded=0;fontSize=12;startSize=8;endSize=8;" edge="1" parent="1" source="ZahFf82nUCPtnE7jNA-f-40" target="ZahFf82nUCPtnE7jNA-f-21">
          <mxGeometry relative="1" as="geometry">
            <Array as="points">
              <mxPoint x="107" y="1187" />
            </Array>
          </mxGeometry>
        </mxCell>
        <mxCell id="ZahFf82nUCPtnE7jNA-f-85" value="" style="curved=1;startArrow=none;endArrow=block;exitX=1.01;exitY=0.62;entryX=0.5;entryY=0;rounded=0;fontSize=12;startSize=8;endSize=8;" edge="1" parent="1" source="ZahFf82nUCPtnE7jNA-f-17" target="ZahFf82nUCPtnE7jNA-f-41">
          <mxGeometry relative="1" as="geometry">
            <Array as="points">
              <mxPoint x="1062" y="723" />
            </Array>
          </mxGeometry>
        </mxCell>
        <mxCell id="ZahFf82nUCPtnE7jNA-f-86" value="" style="curved=1;startArrow=none;endArrow=block;exitX=0.76;exitY=1.01;entryX=0.48;entryY=0.01;rounded=0;fontSize=12;startSize=8;endSize=8;" edge="1" parent="1" source="ZahFf82nUCPtnE7jNA-f-41" target="ZahFf82nUCPtnE7jNA-f-25">
          <mxGeometry relative="1" as="geometry">
            <Array as="points">
              <mxPoint x="1112" y="909" />
            </Array>
          </mxGeometry>
        </mxCell>
        <mxCell id="ZahFf82nUCPtnE7jNA-f-88" value="" style="curved=1;startArrow=none;endArrow=block;exitX=0.49;exitY=0.99;entryX=0.5;entryY=0;rounded=0;fontSize=12;startSize=8;endSize=8;" edge="1" parent="1" source="ZahFf82nUCPtnE7jNA-f-1" target="ZahFf82nUCPtnE7jNA-f-42">
          <mxGeometry relative="1" as="geometry">
            <Array as="points" />
          </mxGeometry>
        </mxCell>
        <mxCell id="ZahFf82nUCPtnE7jNA-f-89" value="" style="curved=1;startArrow=none;endArrow=block;exitX=0.75;exitY=1;entryX=0.01;entryY=0.18;rounded=0;fontSize=12;startSize=8;endSize=8;" edge="1" parent="1" source="ZahFf82nUCPtnE7jNA-f-42" target="ZahFf82nUCPtnE7jNA-f-28">
          <mxGeometry relative="1" as="geometry">
            <Array as="points">
              <mxPoint x="1648" y="629" />
            </Array>
          </mxGeometry>
        </mxCell>
        <mxCell id="ZahFf82nUCPtnE7jNA-f-92" value="" style="curved=1;startArrow=none;endArrow=block;exitX=0.5;exitY=1;entryX=0.05;entryY=0.01;rounded=0;fontSize=12;startSize=8;endSize=8;" edge="1" parent="1" source="ZahFf82nUCPtnE7jNA-f-43" target="ZahFf82nUCPtnE7jNA-f-31">
          <mxGeometry relative="1" as="geometry">
            <Array as="points">
              <mxPoint x="1748" y="909" />
            </Array>
          </mxGeometry>
        </mxCell>
        <mxCell id="ZahFf82nUCPtnE7jNA-f-94" value="" style="curved=1;startArrow=none;endArrow=block;exitX=0.51;exitY=1.01;entryX=0.5;entryY=0;rounded=0;fontSize=12;startSize=8;endSize=8;" edge="1" parent="1" source="ZahFf82nUCPtnE7jNA-f-13" target="ZahFf82nUCPtnE7jNA-f-44">
          <mxGeometry relative="1" as="geometry">
            <Array as="points" />
          </mxGeometry>
        </mxCell>
        <mxCell id="ZahFf82nUCPtnE7jNA-f-95" value="" style="curved=1;startArrow=none;endArrow=block;exitX=0.72;exitY=1;entryX=0;entryY=0.23;rounded=0;fontSize=12;startSize=8;endSize=8;" edge="1" parent="1" source="ZahFf82nUCPtnE7jNA-f-44" target="ZahFf82nUCPtnE7jNA-f-34">
          <mxGeometry relative="1" as="geometry">
            <Array as="points">
              <mxPoint x="602" y="1187" />
            </Array>
          </mxGeometry>
        </mxCell>
        <mxCell id="ZahFf82nUCPtnE7jNA-f-97" value="" style="curved=1;startArrow=none;endArrow=block;exitX=0.5;exitY=0.99;entryX=0.5;entryY=0;rounded=0;fontSize=12;startSize=8;endSize=8;" edge="1" parent="1" source="ZahFf82nUCPtnE7jNA-f-5" target="ZahFf82nUCPtnE7jNA-f-45">
          <mxGeometry relative="1" as="geometry">
            <Array as="points" />
          </mxGeometry>
        </mxCell>
        <mxCell id="ZahFf82nUCPtnE7jNA-f-98" value="" style="curved=1;startArrow=none;endArrow=block;exitX=0.99;exitY=0.72;entryX=0.19;entryY=0.01;rounded=0;fontSize=12;startSize=8;endSize=8;" edge="1" parent="1" source="ZahFf82nUCPtnE7jNA-f-45" target="ZahFf82nUCPtnE7jNA-f-13">
          <mxGeometry relative="1" as="geometry">
            <Array as="points">
              <mxPoint x="505" y="909" />
            </Array>
          </mxGeometry>
        </mxCell>
        <mxCell id="ZahFf82nUCPtnE7jNA-f-100" value="" style="curved=1;startArrow=none;endArrow=block;exitX=1;exitY=0.73;entryX=0.5;entryY=0;rounded=0;fontSize=12;startSize=8;endSize=8;" edge="1" parent="1" source="ZahFf82nUCPtnE7jNA-f-9" target="ZahFf82nUCPtnE7jNA-f-46">
          <mxGeometry relative="1" as="geometry">
            <Array as="points">
              <mxPoint x="1528" y="163" />
            </Array>
          </mxGeometry>
        </mxCell>
        <mxCell id="ZahFf82nUCPtnE7jNA-f-101" value="" style="curved=1;startArrow=none;endArrow=block;exitX=0.81;exitY=1;entryX=0.45;entryY=-0.01;rounded=0;fontSize=12;startSize=8;endSize=8;" edge="1" parent="1" source="ZahFf82nUCPtnE7jNA-f-46" target="ZahFf82nUCPtnE7jNA-f-1">
          <mxGeometry relative="1" as="geometry">
            <Array as="points">
              <mxPoint x="1584" y="332" />
            </Array>
          </mxGeometry>
        </mxCell>
        <mxCell id="ZahFf82nUCPtnE7jNA-f-103" value="" style="curved=1;startArrow=none;endArrow=block;exitX=0;exitY=0.56;entryX=0.5;entryY=0;rounded=0;fontSize=12;startSize=8;endSize=8;" edge="1" parent="1" source="ZahFf82nUCPtnE7jNA-f-9" target="ZahFf82nUCPtnE7jNA-f-47">
          <mxGeometry relative="1" as="geometry">
            <Array as="points">
              <mxPoint x="101" y="163" />
            </Array>
          </mxGeometry>
        </mxCell>
        <mxCell id="ZahFf82nUCPtnE7jNA-f-104" value="" style="curved=1;startArrow=none;endArrow=block;exitX=0.99;exitY=1;entryX=0.01;entryY=0.39;rounded=0;fontSize=12;startSize=8;endSize=8;" edge="1" parent="1" source="ZahFf82nUCPtnE7jNA-f-47" target="ZahFf82nUCPtnE7jNA-f-13">
          <mxGeometry relative="1" as="geometry">
            <Array as="points">
              <mxPoint x="198" y="909" />
            </Array>
          </mxGeometry>
        </mxCell>
        <mxCell id="ZahFf82nUCPtnE7jNA-f-106" value="" style="curved=1;startArrow=none;endArrow=block;exitX=1;exitY=0.88;entryX=0.5;entryY=0;rounded=0;fontSize=12;startSize=8;endSize=8;" edge="1" parent="1" source="ZahFf82nUCPtnE7jNA-f-9" target="ZahFf82nUCPtnE7jNA-f-48">
          <mxGeometry relative="1" as="geometry">
            <Array as="points">
              <mxPoint x="1412" y="163" />
            </Array>
          </mxGeometry>
        </mxCell>
        <mxCell id="ZahFf82nUCPtnE7jNA-f-107" value="" style="curved=1;startArrow=none;endArrow=block;exitX=0.78;exitY=1;entryX=0;entryY=0.42;rounded=0;fontSize=12;startSize=8;endSize=8;" edge="1" parent="1" source="ZahFf82nUCPtnE7jNA-f-48" target="ZahFf82nUCPtnE7jNA-f-31">
          <mxGeometry relative="1" as="geometry">
            <Array as="points">
              <mxPoint x="1467" y="909" />
            </Array>
          </mxGeometry>
        </mxCell>
        <mxCell id="ZahFf82nUCPtnE7jNA-f-109" value="1" style="text;html=1;align=center;verticalAlign=middle;resizable=0;points=[];autosize=1;strokeColor=none;fillColor=none;fontSize=16;" vertex="1" parent="1">
          <mxGeometry x="509" y="961" width="30" height="30" as="geometry" />
        </mxCell>
        <mxCell id="ZahFf82nUCPtnE7jNA-f-110" value="N" style="text;html=1;align=center;verticalAlign=middle;resizable=0;points=[];autosize=1;strokeColor=none;fillColor=none;fontSize=16;" vertex="1" parent="1">
          <mxGeometry x="340" y="1241" width="40" height="30" as="geometry" />
        </mxCell>
        <mxCell id="ZahFf82nUCPtnE7jNA-f-111" value="1" style="text;html=1;align=center;verticalAlign=middle;resizable=0;points=[];autosize=1;strokeColor=none;fillColor=none;fontSize=16;" vertex="1" parent="1">
          <mxGeometry x="559" y="971" width="30" height="30" as="geometry" />
        </mxCell>
        <mxCell id="ZahFf82nUCPtnE7jNA-f-112" value="N" style="text;html=1;align=center;verticalAlign=middle;resizable=0;points=[];autosize=1;strokeColor=none;fillColor=none;fontSize=16;" vertex="1" parent="1">
          <mxGeometry x="764" y="1251" width="40" height="30" as="geometry" />
        </mxCell>
        <mxCell id="ZahFf82nUCPtnE7jNA-f-113" value="1" style="text;html=1;align=center;verticalAlign=middle;resizable=0;points=[];autosize=1;strokeColor=none;fillColor=none;fontSize=16;" vertex="1" parent="1">
          <mxGeometry x="692" y="698" width="30" height="30" as="geometry" />
        </mxCell>
        <mxCell id="ZahFf82nUCPtnE7jNA-f-114" value="N" style="text;html=1;align=center;verticalAlign=middle;resizable=0;points=[];autosize=1;strokeColor=none;fillColor=none;fontSize=16;" vertex="1" parent="1">
          <mxGeometry x="524" y="911" width="40" height="30" as="geometry" />
        </mxCell>
        <mxCell id="ZahFf82nUCPtnE7jNA-f-115" value="1" style="text;html=1;align=center;verticalAlign=middle;resizable=0;points=[];autosize=1;strokeColor=none;fillColor=none;fontSize=16;" vertex="1" parent="1">
          <mxGeometry x="739" y="701" width="30" height="30" as="geometry" />
        </mxCell>
        <mxCell id="ZahFf82nUCPtnE7jNA-f-116" value="N" style="text;html=1;align=center;verticalAlign=middle;resizable=0;points=[];autosize=1;strokeColor=none;fillColor=none;fontSize=16;" vertex="1" parent="1">
          <mxGeometry x="1050" y="977" width="40" height="30" as="geometry" />
        </mxCell>
        <mxCell id="ZahFf82nUCPtnE7jNA-f-117" value="N" style="text;html=1;align=center;verticalAlign=middle;resizable=0;points=[];autosize=1;strokeColor=none;fillColor=none;fontSize=16;" vertex="1" parent="1">
          <mxGeometry x="1784" y="981" width="40" height="30" as="geometry" />
        </mxCell>
        <mxCell id="ZahFf82nUCPtnE7jNA-f-118" value="1" style="text;html=1;align=center;verticalAlign=middle;resizable=0;points=[];autosize=1;strokeColor=none;fillColor=none;fontSize=16;" vertex="1" parent="1">
          <mxGeometry x="1175.5" y="138" width="30" height="30" as="geometry" />
        </mxCell>
        <mxCell id="ZahFf82nUCPtnE7jNA-f-119" value="N" style="text;html=1;align=center;verticalAlign=middle;resizable=0;points=[];autosize=1;strokeColor=none;fillColor=none;fontSize=16;" vertex="1" parent="1">
          <mxGeometry x="1760" y="680" width="40" height="30" as="geometry" />
        </mxCell>
        <mxCell id="ZahFf82nUCPtnE7jNA-f-120" value="1" style="text;html=1;align=center;verticalAlign=middle;resizable=0;points=[];autosize=1;strokeColor=none;fillColor=none;fontSize=16;" vertex="1" parent="1">
          <mxGeometry x="1616" y="401" width="30" height="30" as="geometry" />
        </mxCell>
        <mxCell id="ZahFf82nUCPtnE7jNA-f-121" value="N" style="text;html=1;align=center;verticalAlign=middle;resizable=0;points=[];autosize=1;strokeColor=none;fillColor=none;fontSize=16;" vertex="1" parent="1">
          <mxGeometry x="1544" y="401" width="40" height="30" as="geometry" />
        </mxCell>
        <mxCell id="ZahFf82nUCPtnE7jNA-f-122" value="1" style="text;html=1;align=center;verticalAlign=middle;resizable=0;points=[];autosize=1;strokeColor=none;fillColor=none;fontSize=16;" vertex="1" parent="1">
          <mxGeometry x="1249" y="141" width="30" height="30" as="geometry" />
        </mxCell>
        <mxCell id="ZahFf82nUCPtnE7jNA-f-123" value="1" style="text;html=1;align=center;verticalAlign=middle;resizable=0;points=[];autosize=1;strokeColor=none;fillColor=none;fontSize=16;" vertex="1" parent="1">
          <mxGeometry x="1209" y="141" width="30" height="30" as="geometry" />
        </mxCell>
        <mxCell id="ZahFf82nUCPtnE7jNA-f-124" value="N" style="text;html=1;align=center;verticalAlign=middle;resizable=0;points=[];autosize=1;strokeColor=none;fillColor=none;fontSize=16;" vertex="1" parent="1">
          <mxGeometry x="554" y="911" width="40" height="30" as="geometry" />
        </mxCell>
        <mxCell id="ZahFf82nUCPtnE7jNA-f-125" value="1" style="text;html=1;align=center;verticalAlign=middle;resizable=0;points=[];autosize=1;strokeColor=none;fillColor=none;fontSize=16;" vertex="1" parent="1">
          <mxGeometry x="310" y="698" width="30" height="30" as="geometry" />
        </mxCell>
        <mxCell id="ZahFf82nUCPtnE7jNA-f-126" value="N" style="text;html=1;align=center;verticalAlign=middle;resizable=0;points=[];autosize=1;strokeColor=none;fillColor=none;fontSize=16;" vertex="1" parent="1">
          <mxGeometry x="583.5" y="971" width="40" height="30" as="geometry" />
        </mxCell>
        <mxCell id="ZahFf82nUCPtnE7jNA-f-127" value="N" style="text;html=1;align=center;verticalAlign=middle;resizable=0;points=[];autosize=1;strokeColor=none;fillColor=none;fontSize=16;" vertex="1" parent="1">
          <mxGeometry x="764" y="691" width="40" height="30" as="geometry" />
        </mxCell>
        <mxCell id="ZahFf82nUCPtnE7jNA-f-128" value="1" style="text;html=1;align=center;verticalAlign=middle;resizable=0;points=[];autosize=1;strokeColor=none;fillColor=none;fontSize=16;" vertex="1" parent="1">
          <mxGeometry x="1539" y="341" width="30" height="30" as="geometry" />
        </mxCell>
        <mxCell id="ZahFf82nUCPtnE7jNA-f-130" value="1" style="text;html=1;align=center;verticalAlign=middle;resizable=0;points=[];autosize=1;strokeColor=none;fillColor=none;fontSize=16;" vertex="1" parent="1">
          <mxGeometry x="489" y="971" width="30" height="30" as="geometry" />
        </mxCell>
        <mxCell id="ZahFf82nUCPtnE7jNA-f-132" value="N" style="text;html=1;align=center;verticalAlign=middle;resizable=0;points=[];autosize=1;strokeColor=none;fillColor=none;fontSize=16;" vertex="1" parent="1">
          <mxGeometry x="1814" y="981" width="40" height="30" as="geometry" />
        </mxCell>
      </root>
    </mxGraphModel>
  </diagram>
</mxfile>
